<svg width="9" height="11" viewBox="0 0 9 11" fill="none" xmlns="http://www.w3.org/2000/svg">
<circle cx="0.646416" cy="1.58611" r="0.646416" fill="#61481C"/>
<path d="M6.79587 7.73556C6.79587 8.42132 6.52345 9.079 6.03854 9.5639C5.55364 10.0488 4.89597 10.3212 4.2102 10.3212C3.52444 10.3212 2.86677 10.0488 2.38187 9.5639C1.89696 9.079 1.62454 8.42133 1.62454 7.73557L4.2102 7.73556H6.79587Z" fill="#61481C"/>
<path d="M8.5 1.27142C8.5 1.62842 8.21059 1.91783 7.85358 1.91783C7.49658 1.91783 7.20717 1.62842 7.20717 1.27142C7.20717 0.91441 7.49658 0.625 7.85358 0.625C8.21059 0.625 8.5 0.91441 8.5 1.27142Z" fill="#61481C"/>
</svg>
